<svg width="23" height="23" viewBox="0 0 23 23" fill="none" xmlns="http://www.w3.org/2000/svg">
<path d="M15.7093 13.6482C18.4702 9.74954 17.5468 4.35109 13.6482 1.59085C9.74954 -1.16938 4.35109 -0.246667 1.59085 3.65262C-1.16938 7.55124 -0.246667 12.949 3.65262 15.7093C6.43528 17.6794 10.1143 17.8311 13.0493 16.0977L19.4265 22.4367C20.1151 23.1616 21.2607 23.1906 21.9856 22.502C22.7104 21.8141 22.7395 20.6685 22.0515 19.9436C22.0298 19.9205 22.0087 19.8994 21.9856 19.8777L15.7093 13.6482ZM8.64478 14.2391C5.56401 14.2398 3.06627 11.744 3.0643 8.66325C3.06364 5.58247 5.55939 3.08474 8.64083 3.08342C11.7176 3.0821 14.2141 5.5739 14.22 8.65072C14.2253 11.7322 11.7308 14.2338 8.64874 14.2391C8.64742 14.2391 8.64676 14.2391 8.64478 14.2391Z" fill="white"/>
</svg>
