<?xml version="1.0" encoding="utf-8"?><svg xmlns="http://www.w3.org/2000/svg" xmlns:xlink="http://www.w3.org/1999/xlink"><symbol viewBox="0 0 23.41 23.4" id="search" xmlns="http://www.w3.org/2000/svg"><path d="M15.71 13.648A8.65 8.65 0 101.591 3.652a8.648 8.648 0 0011.457 12.446l6.378 6.339a1.81 1.81 0 102.559-2.56l-6.277-6.229zm-7.065.591A5.579 5.579 0 018.64 3.083a5.578 5.578 0 01.008 11.156h-.004z"/></symbol><symbol viewBox="0 0 32 32" id="social-1" xmlns="http://www.w3.org/2000/svg"><path d="M16 0C7.165 0 0 7.165 0 16s7.165 16 16 16 16-7.165 16-16S24.835 0 16 0zm.34 25.316c-.001 0 0 0 0 0h-.005a9.573 9.573 0 01-4.576-1.166l-5.077 1.332 1.359-4.961a9.552 9.552 0 01-1.278-4.786c.002-5.278 4.298-9.573 9.576-9.573a9.515 9.515 0 016.774 2.808 9.514 9.514 0 012.802 6.772c-.002 5.279-4.298 9.574-9.576 9.574z"/><path d="M16.342 7.78c-4.39 0-7.961 3.568-7.963 7.956a7.94 7.94 0 001.217 4.234l.19.301-.805 2.936 3.012-.79.291.173a7.947 7.947 0 004.051 1.109h.003c4.387 0 7.958-3.57 7.96-7.957a7.908 7.908 0 00-2.33-5.63 7.907 7.907 0 00-5.626-2.333zm4.681 11.377c-.199.558-1.155 1.068-1.614 1.137a3.283 3.283 0 01-1.508-.095 13.79 13.79 0 01-1.364-.504c-2.4-1.036-3.968-3.452-4.087-3.611-.12-.16-.977-1.298-.977-2.475s.618-1.756.837-1.995a.88.88 0 01.638-.3c.16 0 .32.002.459.008.147.008.344-.055.538.411.2.48.678 1.656.738 1.776.06.12.1.26.02.42-.08.159-.345.503-.598.817-.107.132-.245.25-.105.489s.62 1.022 1.33 1.657c.915.814 1.686 1.067 1.925 1.187.24.12.379.1.518-.06.14-.16.599-.698.758-.938.16-.24.32-.2.538-.12.22.08 1.396.659 1.635.779.24.12.399.18.459.279.06.1.06.579-.14 1.138z"/></symbol><symbol viewBox="0 0 32.76 32" id="social-2" xmlns="http://www.w3.org/2000/svg"><path fill-rule="evenodd" clip-rule="evenodd" d="M32.763 16c0 8.837-7.334 16-16.381 16C7.334 32 0 24.837 0 16S7.334 0 16.382 0c9.047 0 16.381 7.163 16.381 16zm-7.72-4.776l.005.021a16.506 16.506 0 010 7.275l-.006.021c-.437 1.729-2.41 3.583-4.223 3.969l-.02.004a24.096 24.096 0 01-5.72.372l-2.001 2.032c-.495.504-1.367.161-1.367-.537v-1.93c-1.744-.486-3.57-2.255-3.99-3.91l-.005-.02a16.504 16.504 0 010-7.276l.005-.02c.438-1.73 2.411-3.584 4.223-3.97l.021-.004a24.02 24.02 0 018.834 0l.02.004c1.812.386 3.786 2.24 4.223 3.97zm-4.56 9.735c1.19-.26 2.689-1.661 2.981-2.789a14.96 14.96 0 000-6.575c-.292-1.127-1.79-2.53-2.981-2.788a22.37 22.37 0 00-8.203 0c-1.19.259-2.688 1.66-2.981 2.788a14.975 14.975 0 000 6.575c.293 1.128 1.79 2.53 2.98 2.788h.002c.053.01.091.056.091.109v3.195c0 .16.2.239.314.123l1.554-1.558 1.461-1.465a.113.113 0 01.083-.033 22.38 22.38 0 004.699-.37zm-1.687-1.362a2.976 2.976 0 01-.344-.108c-1.679-.68-3.223-1.558-4.447-2.903-.696-.764-1.24-1.628-1.7-2.542a18.427 18.427 0 01-.533-1.193l-.058-.138c-.17-.408.081-.83.346-1.137.25-.289.57-.51.916-.672.271-.127.538-.054.736.17.427.485.82.994 1.138 1.555.195.346.141.768-.213 1.003-.069.046-.133.098-.197.15l-.048.039a.793.793 0 00-.184.19.51.51 0 00-.036.458c.437 1.172 1.173 2.084 2.381 2.575l.052.022c.177.072.356.146.559.123.241-.027.377-.204.514-.383a1.51 1.51 0 01.241-.268c.256-.204.582-.207.858-.037.275.17.542.353.807.538l.055.038c.242.168.482.335.705.527.23.199.31.46.18.729-.238.494-.584.905-1.084 1.167-.096.05-.206.077-.316.105a2.873 2.873 0 00-.153.04 6.825 6.825 0 00-.175-.048zm1.976-5.655c-.387-2.12-2.19-3.543-4.386-3.603h-.127c-.156.009-.294.136-.264.295.032.18.217.199.37.214l.027.002c.077.008.154.015.232.021.171.015.343.03.511.059 1.628.283 2.932 1.605 3.16 3.202.034.242.05.485.068.73l.013.184c.011.154.09.298.267.296.17-.002.26-.148.247-.303l-.01-.136c-.026-.322-.05-.644-.108-.96zm-1.05.629a.697.697 0 01-.02.142c-.059.215-.393.242-.47.025a.63.63 0 01-.026-.207 2.55 2.55 0 00-.337-1.304 2.461 2.461 0 00-1.041-.954 3.048 3.048 0 00-.83-.248 4.692 4.692 0 00-.234-.032l-.143-.018c-.153-.02-.234-.116-.227-.262.007-.138.11-.236.263-.228.504.028.99.134 1.439.366.91.471 1.43 1.215 1.583 2.208l.008.048c.006.03.01.058.013.087l.016.252.007.118a.27.27 0 00-.001.007zm-1.666-.32c.02.165.118.264.301.26a.217.217 0 00.197-.174c.015-.065.008-.136.002-.203v-.006c-.087-.978-.695-1.408-1.547-1.468a.263.263 0 00-.278.207c-.023.134.058.25.204.284.063.015.127.02.191.027a.962.962 0 01.514.173c.19.134.31.338.365.558.024.096.035.196.046.296l.005.046z"/></symbol><symbol viewBox="0 0 32 32" id="social-3" xmlns="http://www.w3.org/2000/svg"><path d="M16 32c8.839 0 16-7.161 16-16S24.839 0 16 0 0 7.161 0 16s7.161 16 16 16zM7.321 15.653l15.427-5.948c.716-.258 1.341.175 1.11 1.258v-.002l-2.626 12.375c-.195.877-.716 1.09-1.445.677l-4-2.948-1.93 1.859c-.213.213-.393.393-.806.393l.284-4.07 7.413-6.698c.323-.284-.072-.444-.497-.161l-9.162 5.768-3.949-1.232c-.857-.272-.876-.857.181-1.27z"/></symbol><symbol viewBox="0 0 32 32" id="social-4" xmlns="http://www.w3.org/2000/svg"><path d="M13.235 15.792a2.557 2.557 0 105.113 0 2.557 2.557 0 00-5.113 0z"/><path fill-rule="evenodd" clip-rule="evenodd" d="M19.062 22.254a3.192 3.192 0 003.192-3.192v-6.539a3.192 3.192 0 00-3.192-3.192h-6.539a3.192 3.192 0 00-3.192 3.192v6.539a3.192 3.192 0 003.192 3.192h6.539zm-7.455-6.462a4.189 4.189 0 014.184-4.184 4.189 4.189 0 014.184 4.184 4.189 4.189 0 01-4.184 4.185 4.189 4.189 0 01-4.184-4.185zm8.378-3.15a1.003 1.003 0 100-2.005 1.003 1.003 0 000 2.005z"/><path fill-rule="evenodd" clip-rule="evenodd" d="M32 16c0 8.839-7.161 16-16 16S0 24.839 0 16 7.161 0 16 0s16 7.161 16 16zM12.523 7.704h6.539a4.825 4.825 0 014.82 4.819v6.539a4.825 4.825 0 01-4.82 4.82h-6.539a4.825 4.825 0 01-4.82-4.82v-6.539a4.825 4.825 0 014.82-4.82z"/></symbol></svg>